#N canvas 402 242 745 469 10;
#X floatatom 117 79 5 50 99 0 - - -;
#X obj 118 105 swap 100;
#X obj 118 129 /;
#X obj 118 156 - 1;
#X floatatom 118 184 5 0 0 0 - - -;
#X obj 103 208 *~;
#X obj 58 256 min~;
#X obj 57 209 sig~ 1;
#X obj 57 233 -~;
#X obj 58 281 /~;
#X obj 176 104 / 100;
#X obj 176 132 swap 1;
#X obj 176 155 -;
#X floatatom 176 177 5 0 0 0 - - -;
#X text 155 68 percentuale di salita vs. discesa;
#X obj 58 302 *~ 0.25;
#X obj 58 326 -~ 0.25;
#X obj 58 347 cos~;
#X obj 118 33 loadbang;
#X msg 118 55 62;
#X text 54 8 curve P \, T \, U;
#X text 112 303 diviso 4;
#X text 110 325 offsettato in negativo;
#X obj 58 392 outlet~;
#X text 86 269 da triangolare a dente di sega \, variando la percetuale
salita/discesa;
#X obj -9 179 vline~;
#X obj -64 38 inlet;
#X obj -9 107 bng 15 250 50 0 empty empty empty 17 7 0 10 -262144 -1
-1;
#X obj -65 107 bng 15 250 50 0 empty empty empty 17 7 0 10 -262144
-1 -1;
#X obj -65 179 line~;
#X msg -65 155 0 \, 1 \$1;
#X obj 415 88 phasor~;
#X floatatom 415 65 5 0 0 0 - - -;
#N canvas 86 40 450 300 grapha 0;
#X obj 100 100 cnv 15 100 100 empty empty empty 20 12 0 14 -262144
-66577 0;
#N canvas 0 22 450 300 (subpatch) 0;
#X array \$0-A 1000 float 0;
#X coords 0 1 999 -1 100 100 1;
#X restore 100 100 graph;
#X obj 289 155 inlet~;
#X obj 210 130 loadbang;
#X obj 278 131 bng 15 250 50 0 empty empty empty 0 -6 0 8 -262144 -1
-1;
#X obj 217 178 s b;
#X obj 210 209 tabwrite~ \$0-A;
#X obj 210 155 metro 50;
#X connect 2 0 6 0;
#X connect 3 0 7 0;
#X connect 4 0 7 0;
#X connect 7 0 5 0;
#X connect 7 0 6 0;
#X coords 0 -1 1000 1 100 100 1 100 100;
#X restore 418 139 pd grapha;
#X msg -9 155 0 \, 1 \$1 0 \, 0 0 \$1;
#X obj 268 29 inlet AMPIEZZA;
#X obj 22 33 inlet TEMPO;
#X obj -9 133 f \$1;
#X obj -65 133 f \$1;
#X obj 58 368 *~ \$2;
#X connect 0 0 1 0;
#X connect 0 0 10 0;
#X connect 1 0 2 0;
#X connect 1 1 2 1;
#X connect 2 0 3 0;
#X connect 3 0 4 0;
#X connect 4 0 5 1;
#X connect 5 0 6 1;
#X connect 6 0 9 0;
#X connect 7 0 8 0;
#X connect 8 0 6 0;
#X connect 9 0 15 0;
#X connect 10 0 11 0;
#X connect 11 0 12 0;
#X connect 11 1 12 1;
#X connect 12 0 13 0;
#X connect 13 0 9 1;
#X connect 15 0 16 0;
#X connect 16 0 17 0;
#X connect 17 0 39 0;
#X connect 18 0 19 0;
#X connect 19 0 0 0;
#X connect 26 0 28 0;
#X connect 27 0 37 0;
#X connect 28 0 38 0;
#X connect 29 0 5 0;
#X connect 29 0 8 1;
#X connect 30 0 29 0;
#X connect 32 0 31 0;
#X connect 34 0 25 0;
#X connect 35 0 39 1;
#X connect 36 0 37 1;
#X connect 36 0 38 1;
#X connect 37 0 34 0;
#X connect 38 0 30 0;
#X connect 39 0 23 0;
#X connect 39 0 33 0;
