#N canvas 697 374 368 316 10;
#X obj -110 157 cos~;
#X obj -110 114 -~ 0.5;
#X obj -110 135 *~ 1.33333;
#X obj -110 180 +~ 0.5;
#X obj -333 134 sig~ 1;
#X text -252 156 16/3;
#X obj -333 180 -~;
#X text -139 156 8/9;
#X text -139 183 2/9;
#X obj -333 208 max~;
#X obj -333 230 min~;
#X obj -110 252 *~;
#X obj -318 157 *~ 5.33333;
#X obj -213 157 *~ 0.888889;
#X obj -213 183 +~ 0.222222;
#X obj -110 88 line~;
#X obj -109 11 inlet;
#X obj -110 283 outlet~;
#X obj -109 34 f \$1;
#X msg -109 61 0 \, 1 \$1;
#X obj -67 11 inlet TEMPO;
#X obj -129 34 bng 15 250 50 0 empty empty empty 17 7 0 10 -262144
-1 -1;
#X connect 0 0 3 0;
#X connect 1 0 2 0;
#X connect 2 0 0 0;
#X connect 3 0 11 0;
#X connect 4 0 6 0;
#X connect 4 0 10 1;
#X connect 6 0 9 0;
#X connect 9 0 10 0;
#X connect 10 0 11 1;
#X connect 11 0 17 0;
#X connect 12 0 6 1;
#X connect 13 0 14 0;
#X connect 14 0 9 1;
#X connect 15 0 1 0;
#X connect 15 0 13 0;
#X connect 15 0 12 0;
#X connect 16 0 18 0;
#X connect 16 0 21 0;
#X connect 18 0 19 0;
#X connect 19 0 15 0;
#X connect 20 0 18 1;
